<?xml version="1.0" encoding="utf-8"?><!-- Generator: Adobe Illustrator 18.1.1, SVG Export Plug-In . SVG Version: 6.00 Build 0)  --><svg xmlns="http://www.w3.org/2000/svg" xmlns:xlink="http://www.w3.org/1999/xlink" viewBox="0 0 50 50" width="150px" height="150px"><path fill="none" stroke="#000000" stroke-width="2" stroke-linejoin="round" stroke-miterlimit="10" d="M9.9,22.6c0,0,11.1-3.7,11.1-11.6"/><path fill="none" stroke="#000000" stroke-width="2" stroke-linejoin="round" stroke-miterlimit="10" d="M12,13.5c0,0,3,5.5,9,7.9"/><line fill="none" stroke="#000000" stroke-width="2" stroke-linejoin="round" stroke-miterlimit="10" x1="8" y1="11" x2="25" y2="11"/><line fill="none" stroke="#000000" stroke-width="2" stroke-linejoin="round" stroke-miterlimit="10" x1="17" y1="11" x2="17" y2="8"/><g><path d="M36.7,37h-5.3l-1.1,3.2h-2.5l5.2-13.8h2.1l5.2,13.8h-2.5L36.7,37z M32,35.1h4l-2-5.7L32,35.1z"/></g><polygon points="12,25 7,31 10,31 10,35 14,35 14,31 17,31 "/><polygon points="25,38 19,33 19,36 10,36 14,40 19,40 19,43 "/><path d="M44,21H24c-1.7,0-3,1.3-3,3v8.4l2,1.7V24c0-0.6,0.4-1,1-1h20c0.6,0,1,0.4,1,1v20c0,0.6-0.4,1-1,1H24c-0.6,0-1-0.4-1-1v-2l-2,1.7V44c0,1.7,1.3,3,3,3h20c1.7,0,3-1.3,3-3V24C47,22.3,45.7,21,44,21z"/><g><polygon points="17.6,29 22,29 22,27 16,27 "/><path d="M26,3H6C4.3,3,3,4.3,3,6v20c0,1.7,1.3,3,3,3h0.4L8,27H6c-0.6,0-1-0.4-1-1V6c0-0.6,0.4-1,1-1h20c0.6,0,1,0.4,1,1v16h2V6C29,4.3,27.7,3,26,3z"/></g></svg>